<svg xmlns="http://www.w3.org/2000/svg" width="152" height="59" viewBox="0 0 152 59">
  <g id="Group_2" data-name="Group 2" transform="translate(-122 -44)">
    <g id="agreement" transform="translate(122 48.302)">
      <path id="Path_1" data-name="Path 1" d="M61.395,51.617a14.272,14.272,0,0,0-19.825-.345l-.354.345-4.321,4.321L32.848,51.9A14.274,14.274,0,0,0,12.323,71.738c.108.118.226.236.345.354L35.289,94.713a2.951,2.951,0,1,0,4.174-4.174,2.955,2.955,0,0,0,4.174-4.184,2.955,2.955,0,0,0,4.184-4.174,2.955,2.955,0,0,0,5.03-1.831l8.544-8.544.345-.354A14.275,14.275,0,0,0,61.395,51.617Z" transform="translate(-7.506 -46.409)" fill="#bc2c3d"/>
      <path id="Path_2" data-name="Path 2" d="M191.305,71.457l-.345.354-8.544,8.544a2.966,2.966,0,0,0-.856-2.343L167.149,63.6l-4.174,4.174-2.983,2.992a2.917,2.917,0,0,1-1.565.817,3.032,3.032,0,0,1-.522.049,2.993,2.993,0,0,1-2.1-.866,2.956,2.956,0,0,1,.01-4.184l14.962-14.962.354-.345a14.275,14.275,0,0,1,20.771,19.494C191.836,70.864,191.578,71.165,191.305,71.457Z" transform="translate(-137.072 -46.414)" fill="#2c2627"/>
      <g id="Group_1" data-name="Group 1" transform="translate(0)">
        <path id="Path_3" data-name="Path 3" d="M184.55,64.112c.008-.011.012-.025.019-.037A15.254,15.254,0,0,0,162.92,42.613s-.011.006-.016.01l-.02.02-.107.107c-.083.079-.166.158-.247.24-.007.007-.009.016-.015.022L147.567,57.96a3.933,3.933,0,0,0,2.786,6.713.65.65,0,0,0,.138-.01,3.817,3.817,0,0,0,2.1-.7,3.325,3.325,0,0,0,.541-.443l2.294-2.284,1.4-1.4,6.044-6.044a10.8,10.8,0,0,0,6.684,3.18,9.526,9.526,0,0,0,7.255-3.2.98.98,0,0,0,0-1.388.992.992,0,0,0-1.4,0,7.642,7.642,0,0,1-5.739,2.628c-3.445-.167-6-3.229-6.024-3.248a.982.982,0,0,0-1.457-.079l-3.14,3.15-4.174,4.174-.069.069a.348.348,0,0,0-.138.138l-.069.069-2.855,2.845a1.911,1.911,0,0,1-1.053.541,1.965,1.965,0,0,1-1.733-3.327l14.963-14.962,0,0h0c.109-.109.219-.215.33-.319a13.289,13.289,0,0,1,18.794,18.769h0l-.01.01-7.58,7.59a3.972,3.972,0,0,1,.325,2.471l8.338-8.338.217-.226.034-.041.09-.093A1.271,1.271,0,0,0,184.55,64.112Z" transform="translate(-129.525 -38.52)" fill="#131212"/>
        <path id="Path_4" data-name="Path 4" d="M285.854,77.608a.171.171,0,0,0-.039.049l.049-.049Z" transform="translate(-252.844 -73.099)"/>
        <path id="Path_5" data-name="Path 5" d="M45.936,73.025a3.706,3.706,0,0,0-.62-.906,1.691,1.691,0,0,0-.128-.148L31.475,58.259l-1.4,1.4L43.79,73.369a1.963,1.963,0,0,1-2.737,2.815l0,0,0-.006c-.01-.01-.03-.02-.039-.03L27.3,62.433l-1.4,1.4L39.616,77.543h0a1.969,1.969,0,0,1-2.787,2.782v-.007L23.068,66.557a3.818,3.818,0,0,1-2.1.7L35.432,81.717h.006A1.969,1.969,0,0,1,32.654,84.5l-17.4-17.4a.984.984,0,0,0-1.392,1.392l17.4,17.4a1.969,1.969,0,0,1-2.785,2.785L5.758,65.958c-.073-.076-.145-.152-.221-.228A13.292,13.292,0,0,1,24.653,47.263L28,50.61l1.388-1.4-3.347-3.337A15.252,15.252,0,0,0,3.991,66.941a1.02,1.02,0,0,0,.1.127c.009.01.012.023.021.032l22.97,22.97A3.921,3.921,0,0,0,33.78,87.02c.089.006.177.025.266.025a3.907,3.907,0,0,0,3.91-4.2c.089.006.177.025.266.025a3.908,3.908,0,0,0,3.912-4.186l.011,0a2.229,2.229,0,0,0,.256.01,3.935,3.935,0,0,0,2.786-1.152,3.99,3.99,0,0,0,1.073-2.038V75.5A3.973,3.973,0,0,0,45.936,73.025Z" transform="translate(-0.001 -41.071)" fill="#921625"/>
      </g>
    </g>
    <text id="SOS" transform="translate(194 79)" fill="#2c2627" font-size="36" font-family="Montserrat-Medium, Montserrat" font-weight="500" letter-spacing="0.07em"><tspan x="0" y="0">SOS</tspan></text>
    <text id="LEBANON" transform="translate(194 99)" fill="#bc2c3d" font-size="15" font-family="Montserrat-Regular, Montserrat" letter-spacing="0.021em"><tspan x="0" y="0">LEBANON</tspan></text>
  </g>
</svg>
