<svg xmlns="http://www.w3.org/2000/svg" width="65.415" height="65.415" viewBox="0 0 65.415 65.415">
  <g id="canned-food" transform="translate(-1 -1)">
    <path id="Path_11" data-name="Path 11" d="M13.275,37.33c3.008,0,5.275-1.361,5.275-3.165S16.283,31,13.275,31,8,32.361,8,34.165,10.267,37.33,13.275,37.33Zm0-4.22c2.043,0,3.165.792,3.165,1.055s-1.123,1.055-3.165,1.055-3.165-.792-3.165-1.055S11.233,33.11,13.275,33.11Z" transform="translate(0.386 1.652)"/>
    <path id="Path_12" data-name="Path 12" d="M31.57,53.376l-2.532-1.9a7.585,7.585,0,0,0-8.862,0L18.68,52.6A5.427,5.427,0,0,0,14.055,50a1.055,1.055,0,0,0-1,1.39L14,54.22l-.944,2.832a1.054,1.054,0,0,0,1,1.388,5.428,5.428,0,0,0,4.624-2.6l1.5,1.122a7.384,7.384,0,0,0,8.862,0l2.532-1.9a1.056,1.056,0,0,0,0-1.688ZM15.656,55.923l.456-1.368a1.048,1.048,0,0,0,0-.668l-.456-1.368a3.336,3.336,0,0,1,1.5,1.7,3.342,3.342,0,0,1-1.5,1.7Zm12.114-.648a5.414,5.414,0,0,1-6.329,0L20.034,54.22l1.407-1.055a5.414,5.414,0,0,1,6.329,0l1.406,1.055Z" transform="translate(0.661 2.699)"/>
    <path id="Path_13" data-name="Path 13" d="M48.479,1c-6.2,0-17.936,1.1-17.936,5.275V28.823a69.009,69.009,0,0,0-7.386-.39C12.146,28.432,1,30.969,1,35.818V59.03c0,4.849,11.146,7.386,22.157,7.386s22.157-2.536,22.157-7.386V57.893c1.043.049,2.1.081,3.165.081,6.2,0,17.936-1.1,17.936-5.275V6.275C66.415,2.1,54.683,1,48.479,1Zm0,2.11C58.758,3.11,64.3,5.356,64.3,6.275S58.758,9.441,48.479,9.441,32.652,7.194,32.652,6.275,38.2,3.11,48.479,3.11ZM23.157,30.542c12.419,0,20.047,3.072,20.047,5.275s-7.627,5.275-20.047,5.275S3.11,38.021,3.11,35.818,10.737,30.542,23.157,30.542Zm22.157,5.275A3.714,3.714,0,0,0,43.969,33.1a4.148,4.148,0,0,1,1.872-.451H46.9a4.152,4.152,0,0,1,2.314.7l.532.355a6.283,6.283,0,0,0,6.97,0l.15-.1a8.45,8.45,0,0,1-8.383,7.486,8.346,8.346,0,0,1-3.165-.627ZM55.54,31.952a4.238,4.238,0,0,1-4.629,0l-.531-.355A6.26,6.26,0,0,0,46.9,30.542H45.841A6.262,6.262,0,0,0,42.356,31.6l-.281.187a16.249,16.249,0,0,0-1.863-.847,8.438,8.438,0,0,1,16.563.192ZM8.386,62.464v-14.7a56.723,56.723,0,0,0,14.771,1.767,56.712,56.712,0,0,0,14.771-1.767v14.7A52.192,52.192,0,0,1,23.157,64.3,52.192,52.192,0,0,1,8.386,62.464Zm31.652-.759V46.336a1.056,1.056,0,0,0-1.395-1,51.2,51.2,0,0,1-15.486,2.087A51.213,51.213,0,0,1,7.67,45.337a1.055,1.055,0,0,0-.954.157,1.085,1.085,0,0,0-.441.875V61.705C4.221,60.832,3.11,59.868,3.11,59.03V39.156C6.855,41.823,15.04,43.2,23.157,43.2s16.3-1.38,20.047-4.047V59.03c0,.839-1.111,1.8-3.165,2.676Zm8.441-5.841c-1.067,0-2.123-.034-3.165-.083V47.342c1.043.049,2.1.081,3.165.081,4.579,0,12.164-.6,15.826-2.594V52.7C64.3,53.618,58.758,55.864,48.479,55.864Zm0-10.551c-1.067,0-2.123-.034-3.165-.083V42.705a10.545,10.545,0,1,0-7.1-12.443,41.446,41.446,0,0,0-5.556-1.171V17.4c3.662,1.992,11.247,2.594,15.826,2.594s12.164-.6,15.826-2.594V42.148C64.3,43.067,58.758,45.313,48.479,45.313Zm0-27.432c-10.28,0-15.826-2.246-15.826-3.165V8.956c3.662,1.992,11.247,2.594,15.826,2.594s12.164-.6,15.826-2.594v5.76C64.3,15.635,58.758,17.881,48.479,17.881Z" transform="translate(0 0)"/>
    <path id="Path_14" data-name="Path 14" d="M15.656,55.923l.456-1.368a1.048,1.048,0,0,0,0-.668l-.456-1.368a3.336,3.336,0,0,1,1.5,1.7,3.342,3.342,0,0,1-1.5,1.7Zm12.114-.648a5.414,5.414,0,0,1-6.329,0L20.034,54.22l1.407-1.055a5.414,5.414,0,0,1,6.329,0l1.406,1.055Z" transform="translate(0.661 2.699)" fill="#bc2c3d"/>
  </g>
</svg>
