<svg xmlns="http://www.w3.org/2000/svg" width="65.001" height="65" viewBox="0 0 65.001 65">
  <g id="Group_5" data-name="Group 5" transform="translate(-473 -834)">
    <g id="home_7_" data-name="home (7)" transform="translate(473 834)">
      <path id="Path_6" data-name="Path 6" d="M172.354,206c-3.689,0-6.348,3.087-6.348,6.835,0,4.12,3.171,6.821,7.97,10.91.836.713,1.7,1.45,2.62,2.253a1.269,1.269,0,0,0,1.672,0c.919-.8,1.783-1.54,2.62-2.253,4.8-4.089,7.97-6.791,7.97-10.91,0-3.749-2.659-6.835-6.348-6.835a6.031,6.031,0,0,0-5.078,2.83,6.031,6.031,0,0,0-5.078-2.83Zm6.3,6.049c.01-.035,1-3.51,3.854-3.51,2.171,0,3.809,1.847,3.809,4.3,0,2.947-2.664,5.217-7.078,8.978-.586.5-1.185,1.01-1.809,1.548-.624-.539-1.223-1.05-1.809-1.548-4.414-3.76-7.078-6.03-7.078-8.978,0-2.449,1.637-4.3,3.809-4.3,2.822,0,3.81,3.355,3.855,3.513a1.27,1.27,0,0,0,2.448,0Z" transform="translate(-144.931 -179.85)"/>
      <circle id="Ellipse_1" data-name="Ellipse 1" cx="1.5" cy="1.5" r="1.5" transform="translate(15 11)"/>
      <path id="Path_7" data-name="Path 7" d="M56.849,30.2a5.032,5.032,0,0,0,3.075,1.037A5.078,5.078,0,0,0,63,22.117l-6.38-4.9V1.273A1.27,1.27,0,0,0,55.353,0H47.736a1.27,1.27,0,0,0-1.27,1.27V9.409L35.576,1.04a5.078,5.078,0,0,0-6.154,0L19.756,8.472A1.27,1.27,0,1,0,21.3,10.485l9.662-7.425a2.54,2.54,0,0,1,3.068,0L61.46,24.134a2.539,2.539,0,0,1-3.068,4.047L33.275,8.864a1.269,1.269,0,0,0-1.5-.032c-.058.04-25.154,19.345-25.157,19.347a2.539,2.539,0,0,1-1.794.5,2.226,2.226,0,0,1-2.212-1.918,2.558,2.558,0,0,1,.938-2.634l8.7-6.686A1.27,1.27,0,1,0,10.7,15.431L2,22.114a5.069,5.069,0,0,0-1.871,5.21,4.736,4.736,0,0,0,4.442,3.884A5.068,5.068,0,0,0,8.155,30.2l0,0,.227-.171V47.441a7.59,7.59,0,0,0-5.688,6.053A6.33,6.33,0,0,0,6.349,65H58.654a6.33,6.33,0,0,0,3.656-11.51,7.59,7.59,0,0,0-5.688-6.053V30.023ZM49.005,2.542h5.078V15.263l-5.078-3.9ZM20.314,62.464H6.349a3.793,3.793,0,0,1-1.856-7.109,1.27,1.27,0,0,0,.64-.986A5.047,5.047,0,0,1,14.3,51.923a1.27,1.27,0,0,0,1.33.5,3.764,3.764,0,0,1,4.689,3.649,1.282,1.282,0,0,0,.829,1.47,2.53,2.53,0,0,1-.829,4.923Zm21.864-6.937A5.043,5.043,0,0,0,40.3,57.386H24.707a5.044,5.044,0,0,0-1.882-1.859,6.439,6.439,0,0,0-.1-.681H42.278A6.469,6.469,0,0,0,42.177,55.527ZM24.71,62.464a5.047,5.047,0,0,0,.681-2.539H39.611a5.049,5.049,0,0,0,.681,2.539Zm35.159-8.095a1.27,1.27,0,0,0,.64.986,3.793,3.793,0,0,1-1.856,7.109H44.689a2.53,2.53,0,0,1-.829-4.923,1.282,1.282,0,0,0,.829-1.47,3.764,3.764,0,0,1,4.689-3.649,1.27,1.27,0,0,0,1.33-.5,5.047,5.047,0,0,1,9.162,2.447Zm-5.786-7.1a7.635,7.635,0,0,0-4.934,2.537,5.717,5.717,0,0,0-.652-.038,6.372,6.372,0,0,0-5.076,2.539H21.581a6.372,6.372,0,0,0-5.076-2.539,5.714,5.714,0,0,0-.652.038,7.634,7.634,0,0,0-4.934-2.537v-19.2L32.5,11.471l21.582,16.6Z" transform="translate(0 -0.003)"/>
    </g>
    <path id="Path_8" data-name="Path 8" d="M178.992,212.388c.01-.035,1-3.51,3.854-3.51,2.171,0,3.809,1.847,3.809,4.3,0,2.947-2.664,5.217-7.078,8.978-.586.5-1.185,1.01-1.809,1.548-.624-.539-1.223-1.05-1.809-1.548-4.414-3.76-7.078-6.03-7.078-8.978,0-2.449,1.637-4.3,3.809-4.3,2.822,0,3.81,3.355,3.855,3.513a1.27,1.27,0,0,0,2.448,0Z" transform="translate(327.733 653.814)" fill="#bc2c3d"/>
  </g>
</svg>
