<svg id="love" xmlns="http://www.w3.org/2000/svg" width="64.701" height="60.657" viewBox="0 0 64.701 60.657">
  <path id="Path_15" data-name="Path 15" d="M146.287,27.373c0-4.4-2.877-11.373-10.6-11.373-3.172,0-5.841,1.5-7.955,4.452C125.619,17.5,122.951,16,119.779,16c-7.721,0-10.6,6.976-10.6,11.373,0,7.581,5.917,12.324,14,19.236,1.188,1.016,2.416,2.066,3.725,3.2a1.264,1.264,0,0,0,1.656,0c1.309-1.136,2.538-2.186,3.725-3.2,8.462-7.236,14-11.815,14-19.236ZM127.734,47.185c-1.01-.871-1.973-1.695-2.911-2.5-8.457-7.231-13.115-11.215-13.115-17.314,0-4.138,2.707-8.846,8.071-8.846,2.8,0,5.039,1.607,6.846,4.914a1.263,1.263,0,0,0,2.218,0c1.807-3.307,4.047-4.914,6.846-4.914,5.289,0,8.071,4.638,8.071,8.846,0,6.1-4.658,10.083-13.115,17.315-.938.8-1.9,1.626-2.911,2.5Z" transform="translate(-95.383 -16)"/>
  <path id="Path_16" data-name="Path 16" d="M9.081,152.914l6.084,3.041v6.8a1.264,1.264,0,0,0,1.264,1.264h13.4a1.264,1.264,0,0,0,1.264-1.264v-16.5a7.48,7.48,0,0,0-6.746-7.468l-.1-.011c-2.224-.223-6.161-1.744-7.716-3.3l-2.838-2.837a5.022,5.022,0,0,0-3.574-1.481v-10.11a5.055,5.055,0,1,0-10.11,0v17.166a16.429,16.429,0,0,0,9.081,14.693ZM2.527,121.055a2.527,2.527,0,1,1,5.055,0v10.787a5.054,5.054,0,0,0-1.046,7.951l6.471,6.473a1.264,1.264,0,1,0,1.787-1.787l-6.471-6.473a2.527,2.527,0,0,1,.944-4.17h0a2.523,2.523,0,0,1,2.628.6l2.838,2.837c2.93,2.93,9.331,4.032,9.344,4.036a4.963,4.963,0,0,1,4.481,4.954v15.234H17.692v-6.318a1.264,1.264,0,0,0-.7-1.13l-6.782-3.39a13.826,13.826,0,0,1-7.684-12.433Z" transform="translate(0 -103.363)"/>
  <ellipse id="Ellipse_2" data-name="Ellipse 2" cx="1.5" cy="1" rx="1.5" ry="1" transform="translate(56.132 46.312)"/>
  <path id="Path_17" data-name="Path 17" d="M292.032,116a5.061,5.061,0,0,0-5.055,5.055v10.11a5.021,5.021,0,0,0-3.574,1.481l-2.838,2.837c-1.555,1.554-5.492,3.075-7.725,3.3l-.084.009A7.482,7.482,0,0,0,266,146.259v16.5a1.264,1.264,0,0,0,1.264,1.264h13.4a1.264,1.264,0,0,0,1.264-1.264v-6.8l4.136-2.068a1.264,1.264,0,0,0-1.13-2.261l-4.835,2.417a1.264,1.264,0,0,0-.7,1.13v6.318H268.527V146.259a4.965,4.965,0,0,1,4.491-4.955l.084-.009c2.741-.275,7.28-2.055,9.25-4.026l2.839-2.837a2.525,2.525,0,0,1,2.628-.6h0a2.527,2.527,0,0,1,.944,4.17l-6.471,6.473a1.264,1.264,0,1,0,1.787,1.787l6.471-6.473a5.054,5.054,0,0,0-1.047-7.951V121.055a2.527,2.527,0,1,1,5.055,0v17.166a13.938,13.938,0,0,1-1.687,6.638,1.264,1.264,0,0,0,2.22,1.207,16.473,16.473,0,0,0,1.994-7.845V121.055A5.061,5.061,0,0,0,292.032,116Z" transform="translate(-232.386 -103.363)"/>
  <path id="Path_18" data-name="Path 18" d="M127.734,47.185c-1.01-.871-1.973-1.695-2.911-2.5-8.457-7.231-13.115-11.215-13.115-17.314,0-4.138,2.707-8.846,8.071-8.846,2.8,0,5.039,1.607,6.846,4.914a1.263,1.263,0,0,0,2.218,0c1.807-3.307,4.047-4.914,6.846-4.914,5.289,0,8.071,4.638,8.071,8.846,0,6.1-4.658,10.083-13.115,17.315-.938.8-1.9,1.626-2.911,2.5Z" transform="translate(-95.383 -16)" fill="#bc2c3d"/>
</svg>
