<svg xmlns="http://www.w3.org/2000/svg" width="58.407" height="62.042" viewBox="0 0 58.407 62.042">
  <g id="syrup" transform="translate(-15)">
    <path id="Path_9" data-name="Path 9" d="M71.087,33.184A2.364,2.364,0,0,1,69.8,31.4h.027a2.123,2.123,0,0,0,2.121-2.121V26.37a2.123,2.123,0,0,0-2.121-2.121H51.4a2.123,2.123,0,0,0-2.121,2.121v2.908a2.123,2.123,0,0,0,1.758,2.087,2.364,2.364,0,0,1-1.295,1.819,4.174,4.174,0,0,0-2.32,3.754V57.5a4.549,4.549,0,0,0,4.544,4.544H68.863A4.549,4.549,0,0,0,73.407,57.5V36.938a4.173,4.173,0,0,0-2.32-3.754ZM51.1,26.37a.3.3,0,0,1,.3-.3H69.823a.3.3,0,0,1,.3.3v2.908a.3.3,0,0,1-.3.3H51.4a.3.3,0,0,1-.3-.3ZM71.589,57.5a2.73,2.73,0,0,1-2.726,2.726H51.971A2.73,2.73,0,0,1,49.244,57.5V54.255H71.589Zm0-18.1H66.421a.909.909,0,1,0,0,1.818h5.168V52.437H49.244V41.213H62.18a.909.909,0,1,0,0-1.818H49.244V36.938A2.366,2.366,0,0,1,50.56,34.81a4.17,4.17,0,0,0,2.3-3.411h15.1a4.17,4.17,0,0,0,2.3,3.411,2.366,2.366,0,0,1,1.315,2.128V39.4ZM31.114,31.919H28.933A1.638,1.638,0,0,0,27.3,33.555V37.19H23.662a1.638,1.638,0,0,0-1.636,1.636v2.181a1.638,1.638,0,0,0,1.636,1.636H27.3v3.635a1.638,1.638,0,0,0,1.636,1.636h2.181a1.638,1.638,0,0,0,1.636-1.636V42.643h3.635a1.638,1.638,0,0,0,1.636-1.636V38.826a1.638,1.638,0,0,0-1.636-1.636H32.75V33.555A1.638,1.638,0,0,0,31.114,31.919ZM36.2,39.008v1.818h-4A1.274,1.274,0,0,0,30.932,42.1v4H29.115v-4a1.274,1.274,0,0,0-1.272-1.272h-4V39.008h4a1.274,1.274,0,0,0,1.272-1.272v-4h1.818v4A1.274,1.274,0,0,0,32.2,39.008h4Zm.891-26.616V9.71A2.232,2.232,0,0,0,39.083,7.5V3.545A3.556,3.556,0,0,0,35.523,0h-11a3.556,3.556,0,0,0-3.559,3.545V7.5A2.232,2.232,0,0,0,22.952,9.71v2.681l-6.519,6.482A4.819,4.819,0,0,0,15,22.314V36.281a.909.909,0,0,0,1.818,0V28.45H43.229V51.383H16.818V40.522a.909.909,0,0,0-1.818,0V57.18a4.879,4.879,0,0,0,4.885,4.862H40.162a4.879,4.879,0,0,0,4.885-4.862V22.314a4.82,4.82,0,0,0-1.432-3.44ZM43.229,57.18a3.059,3.059,0,0,1-3.067,3.045H19.885a3.059,3.059,0,0,1-3.067-3.045V53.2H43.229ZM22.781,7.5V3.545a1.736,1.736,0,0,1,1.742-1.727h11a1.736,1.736,0,0,1,1.742,1.727V7.5a.413.413,0,0,1-.417.409H23.2a.413.413,0,0,1-.416-.409Zm12.5,2.227V11.86H24.769V9.725Zm7.952,16.907H16.818V22.314a3.014,3.014,0,0,1,.9-2.151l6.521-6.485H35.811l6.521,6.485a3.014,3.014,0,0,1,.9,2.151Z"/>
    <path id="Path_10" data-name="Path 10" d="M36.2,39.008v1.818h-4A1.274,1.274,0,0,0,30.932,42.1v4H29.115v-4a1.274,1.274,0,0,0-1.272-1.272h-4V39.008h4a1.274,1.274,0,0,0,1.272-1.272v-4h1.818v4A1.274,1.274,0,0,0,32.2,39.008h4Z" fill="#bc2c3d"/>
  </g>
</svg>
